<svg width="38" height="31" viewBox="0 0 38 31" fill="none" xmlns="http://www.w3.org/2000/svg">
               
<path d="M15.8331 0C24.5775 0 31.6662 5.26483 31.6662 11.7598C31.6662 18.2549 24.5775 23.5197 15.8331 23.5197C14.9932 23.5197 14.169 23.4706 13.3645 23.3771C9.96373 26.4859 6.036 27.0434 2.11108 27.1255V26.3645C4.2306 25.4153 5.93748 23.6861 5.93748 21.7103C5.93748 21.4344 5.91384 21.1642 5.87049 20.8992C2.28954 18.7431 0 15.4504 0 11.7598C0 5.26535 7.08872 0 15.8331 0ZM32.8535 26.3588C32.8535 28.0524 34.0514 29.5342 35.8884 30.348V31C32.4864 30.9297 29.3643 30.4518 26.4166 27.7874C25.7191 27.8675 25.0053 27.9098 24.2774 27.9098C21.1283 27.9098 18.2273 27.1302 15.9119 25.8199C20.6841 25.8044 25.1894 24.4016 28.606 21.8638C30.3281 20.5845 31.6865 19.0841 32.644 17.4029C33.6591 15.6209 34.1736 13.7221 34.1736 11.7598C34.1736 11.4436 34.159 11.129 34.1319 10.8164C36.5256 12.6309 38 15.1037 38 17.8302C38 20.9932 36.0156 23.8158 32.912 25.6639C32.8743 25.8907 32.854 26.1227 32.854 26.3593L32.8535 26.3588Z" fill="white"/>

</svg>