<svg xmlns="http://www.w3.org/2000/svg" width="183.76" height="70.03" viewBox="0 0 183.76 70.03">
  <g id="SOMI-Services" transform="translate(-24.27 -24.22)">
    <g id="Gruppe_7" data-name="Gruppe 7">
      <path id="Pfad_32" data-name="Pfad 32" d="M25.25,93.49a2.466,2.466,0,0,1-.98-2.04v-.46a.133.133,0,0,1,.15-.15h.73a.133.133,0,0,1,.15.15v.41a1.652,1.652,0,0,0,.72,1.4,3.313,3.313,0,0,0,1.99.53,2.685,2.685,0,0,0,1.75-.49,1.586,1.586,0,0,0,.6-1.3,1.441,1.441,0,0,0-.28-.9,2.7,2.7,0,0,0-.85-.7,14.767,14.767,0,0,0-1.63-.76,16.8,16.8,0,0,1-1.75-.79,2.819,2.819,0,0,1-1-.87,2.259,2.259,0,0,1-.38-1.34,2.358,2.358,0,0,1,.88-1.96,3.8,3.8,0,0,1,2.41-.7,4.031,4.031,0,0,1,2.62.78,2.534,2.534,0,0,1,.96,2.07v.33a.133.133,0,0,1-.15.15h-.75a.133.133,0,0,1-.15-.15v-.27a1.757,1.757,0,0,0-.68-1.42,2.926,2.926,0,0,0-1.9-.55,2.637,2.637,0,0,0-1.63.43,1.489,1.489,0,0,0-.57,1.26,1.355,1.355,0,0,0,.28.89,2.3,2.3,0,0,0,.79.61c.34.17.88.4,1.6.68a14.128,14.128,0,0,1,1.76.84,3.7,3.7,0,0,1,1.08.95,2.271,2.271,0,0,1,.41,1.37,2.449,2.449,0,0,1-.93,2.01,4,4,0,0,1-2.58.75A4.256,4.256,0,0,1,25.25,93.49Z"/>
      <path id="Pfad_33" data-name="Pfad 33" d="M57.24,84.57H51.72a.053.053,0,0,0-.06.06v3.7a.053.053,0,0,0,.06.06h3.87a.133.133,0,0,1,.15.15v.63a.133.133,0,0,1-.15.15H51.72a.053.053,0,0,0-.06.06v3.76a.053.053,0,0,0,.06.06h5.52a.133.133,0,0,1,.15.15v.63a.133.133,0,0,1-.15.15H50.75a.133.133,0,0,1-.15-.15V83.79a.133.133,0,0,1,.15-.15h6.49a.133.133,0,0,1,.15.15v.63A.133.133,0,0,1,57.24,84.57Z"/>
      <path id="Pfad_34" data-name="Pfad 34" d="M82.54,94.03l-2.2-4.65a.055.055,0,0,0-.06-.04H77.73a.053.053,0,0,0-.06.06v4.59a.133.133,0,0,1-.15.15h-.76a.133.133,0,0,1-.15-.15V83.79a.133.133,0,0,1,.15-.15h3.88a2.933,2.933,0,0,1,2.3,4.67,2.551,2.551,0,0,1-1.54.94c-.04.02-.05.05-.03.08l2.25,4.62a.188.188,0,0,1,.02.08c0,.07-.04.1-.12.1h-.79A.193.193,0,0,1,82.54,94.03Zm-4.87-9.4v3.79a.053.053,0,0,0,.06.06h2.79a1.853,1.853,0,0,0,1.95-1.95,1.946,1.946,0,0,0-.54-1.42,1.914,1.914,0,0,0-1.41-.55H77.73A.066.066,0,0,0,77.67,84.63Z"/>
      <path id="Pfad_35" data-name="Pfad 35" d="M104.99,94.01,101.72,83.8l-.02-.06c0-.07.04-.1.13-.1h.81a.175.175,0,0,1,.18.12l2.73,8.78c.01.02.02.03.04.03s.04-.01.04-.03l2.73-8.78a.175.175,0,0,1,.18-.12h.79c.11,0,.15.06.12.16l-3.3,10.21a.175.175,0,0,1-.18.12h-.82A.168.168,0,0,1,104.99,94.01Z"/>
      <path id="Pfad_36" data-name="Pfad 36" d="M128.36,93.98V83.79a.133.133,0,0,1,.15-.15h.76a.133.133,0,0,1,.15.15V93.98a.133.133,0,0,1-.15.15h-.76A.133.133,0,0,1,128.36,93.98Z"/>
      <path id="Pfad_37" data-name="Pfad 37" d="M150.54,93.85a2.977,2.977,0,0,1-1.24-1.17,3.445,3.445,0,0,1-.44-1.75V86.81a3.359,3.359,0,0,1,.44-1.72,2.958,2.958,0,0,1,1.24-1.16,4.382,4.382,0,0,1,3.68-.01,3.037,3.037,0,0,1,1.24,1.14,3.157,3.157,0,0,1,.44,1.69.215.215,0,0,1-.04.12.128.128,0,0,1-.1.04l-.76.04c-.1,0-.15-.04-.15-.13v-.04a2.215,2.215,0,0,0-.67-1.7,2.5,2.5,0,0,0-1.78-.64,2.461,2.461,0,0,0-1.78.64,2.222,2.222,0,0,0-.67,1.69v4.2a2.222,2.222,0,0,0,.67,1.69,2.8,2.8,0,0,0,3.56,0,2.215,2.215,0,0,0,.67-1.7v-.03c0-.09.05-.13.15-.13l.76.04c.1,0,.15.04.15.13a3.359,3.359,0,0,1-.44,1.72,3,3,0,0,1-1.24,1.15,3.989,3.989,0,0,1-1.84.4A3.658,3.658,0,0,1,150.54,93.85Z"/>
      <path id="Pfad_38" data-name="Pfad 38" d="M181.87,84.57h-5.52a.053.053,0,0,0-.06.06v3.7a.053.053,0,0,0,.06.06h3.87a.133.133,0,0,1,.15.15v.63a.133.133,0,0,1-.15.15h-3.87a.053.053,0,0,0-.06.06v3.76a.053.053,0,0,0,.06.06h5.52a.133.133,0,0,1,.15.15v.63a.133.133,0,0,1-.15.15h-6.49a.133.133,0,0,1-.15-.15V83.79a.133.133,0,0,1,.15-.15h6.49a.133.133,0,0,1,.15.15v.63A.133.133,0,0,1,181.87,84.57Z"/>
      <path id="Pfad_39" data-name="Pfad 39" d="M201.59,93.49a2.466,2.466,0,0,1-.98-2.04v-.46a.133.133,0,0,1,.15-.15h.73a.133.133,0,0,1,.15.15v.41a1.652,1.652,0,0,0,.72,1.4,3.313,3.313,0,0,0,1.99.53,2.685,2.685,0,0,0,1.75-.49,1.586,1.586,0,0,0,.6-1.3,1.441,1.441,0,0,0-.28-.9,2.7,2.7,0,0,0-.85-.7,14.766,14.766,0,0,0-1.63-.76,16.8,16.8,0,0,1-1.75-.79,2.819,2.819,0,0,1-1-.87,2.259,2.259,0,0,1-.38-1.34,2.358,2.358,0,0,1,.88-1.96,3.8,3.8,0,0,1,2.41-.7,4.031,4.031,0,0,1,2.62.78,2.534,2.534,0,0,1,.96,2.07v.33a.133.133,0,0,1-.15.15h-.75a.133.133,0,0,1-.15-.15v-.27a1.757,1.757,0,0,0-.68-1.42,2.926,2.926,0,0,0-1.9-.55,2.637,2.637,0,0,0-1.63.43,1.489,1.489,0,0,0-.57,1.26,1.355,1.355,0,0,0,.28.89,2.3,2.3,0,0,0,.79.61c.34.17.88.4,1.6.68a14.128,14.128,0,0,1,1.76.84,3.7,3.7,0,0,1,1.08.95,2.271,2.271,0,0,1,.41,1.37,2.449,2.449,0,0,1-.93,2.01,4,4,0,0,1-2.58.75A4.256,4.256,0,0,1,201.59,93.49Z"/>
    </g>
    <g id="Gruppe_8" data-name="Gruppe 8">
      <path id="Pfad_40" data-name="Pfad 40" d="M72.86,72.49H24.59V62.84H63.21V53.18H24.59V24.22H72.86v9.66H34.25v9.65H72.87V72.49Z"/>
      <path id="Pfad_41" data-name="Pfad 41" d="M130.79,72.49H82.52V24.22h48.27ZM92.17,62.84h28.96V33.87H92.17Z"/>
      <path id="Pfad_42" data-name="Pfad 42" d="M188.72,24.22V72.49h-9.66V33.87h-9.65V72.49h-9.65V33.87H150.1V72.49h-9.65V24.22Z" fill="#008996"/>
      <path id="Pfad_43" data-name="Pfad 43" d="M198.38,24.22h9.65V72.49h-9.65Z" fill="#008996"/>
    </g>
  </g>
</svg>
