<svg xmlns="http://www.w3.org/2000/svg" width="183.6" height="70.1" viewBox="0 0 183.6 70.1">
  <g id="SOMI-Experts" transform="translate(-24.5 -24.1)">
    <g id="Gruppe_3" data-name="Gruppe 3">
      <path id="Pfad_12" data-name="Pfad 12" d="M31.4,84.5H25.9a.1.1,0,0,0-.1.1v3.7a.1.1,0,0,0,.1.1h3.9c.1,0,.1.1.1.2v.6c0,.1,0,.2-.1.2H25.9a.1.1,0,0,0-.1.1v3.8a.1.1,0,0,0,.1.1h5.5c.1,0,.1.1.1.2V94c0,.1,0,.2-.1.2H24.9c-.1,0-.1-.1-.1-.2V83.8c0-.1,0-.2.1-.2h6.5c.1,0,.1.1.1.2v.6C31.6,84.5,31.5,84.5,31.4,84.5Z"/>
      <path id="Pfad_13" data-name="Pfad 13" d="M53.5,94.1V94l3.2-5v-.1l-3.2-5v-.1c0-.1,0-.1.1-.1h.8c.1,0,.1,0,.2.1l2.7,4.3h0L60,83.8c0-.1.1-.1.2-.1H61c.1,0,.1,0,.1.1v.1l-3.1,5V89l3.1,5v.1c0,.1,0,.1-.1.1h-.8c-.1,0-.1,0-.2-.1l-2.7-4.3h0L54.6,94c0,.1-.1.1-.2.1h-.9Z"/>
      <path id="Pfad_14" data-name="Pfad 14" d="M89.7,84.4a3.156,3.156,0,0,1,0,4.2,3.113,3.113,0,0,1-2.2.8H84.6a.1.1,0,0,0-.1.1V94a.215.215,0,0,1-.2.2h-.8a.215.215,0,0,1-.2-.2V83.7a.215.215,0,0,1,.2-.2h3.9A3.737,3.737,0,0,1,89.7,84.4ZM88.9,88a1.816,1.816,0,0,0,.6-1.4,2.035,2.035,0,0,0-.6-1.5,1.816,1.816,0,0,0-1.4-.6H84.7a.1.1,0,0,0-.1.1v3.9a.1.1,0,0,0,.1.1h2.8A2.513,2.513,0,0,0,88.9,88Z"/>
      <path id="Pfad_15" data-name="Pfad 15" d="M119.6,84.5h-5.5a.1.1,0,0,0-.1.1v3.7a.1.1,0,0,0,.1.1H118a.215.215,0,0,1,.2.2v.6a.215.215,0,0,1-.2.2h-3.9a.1.1,0,0,0-.1.1v3.8a.1.1,0,0,0,.1.1h5.5a.215.215,0,0,1,.2.2V94a.215.215,0,0,1-.2.2h-6.5a.215.215,0,0,1-.2-.2V83.8a.215.215,0,0,1,.2-.2h6.5a.215.215,0,0,1,.2.2v.6C119.8,84.5,119.7,84.5,119.6,84.5Z"/>
      <path id="Pfad_16" data-name="Pfad 16" d="M148.5,94l-2.2-4.7h-2.7a.1.1,0,0,0-.1.1V94a.349.349,0,0,1-.1.2h-.8c-.1,0-.1-.1-.1-.2V83.8a.349.349,0,0,1,.1-.2h3.9a2.747,2.747,0,0,1,2.9,2.9,2.792,2.792,0,0,1-.6,1.8,2.371,2.371,0,0,1-1.5.9s-.1.1,0,.1l2.2,4.6V94c0,.1,0,.1-.1.1h-.8A.1.1,0,0,1,148.5,94Zm-4.9-9.4v3.8a.1.1,0,0,0,.1.1h2.8a1.983,1.983,0,0,0,1.4-3.3,1.816,1.816,0,0,0-1.4-.6Z"/>
      <path id="Pfad_17" data-name="Pfad 17" d="M178.7,83.8v.7a.349.349,0,0,1-.1.2h-2.9a.1.1,0,0,0-.1.1V94a.349.349,0,0,1-.1.2h-.8c-.1,0-.1-.1-.1-.2V84.7a.1.1,0,0,0-.1-.1h-2.8c-.1,0-.1-.1-.1-.2v-.7a.349.349,0,0,1,.1-.2h6.9C178.6,83.6,178.7,83.7,178.7,83.8Z"/>
      <path id="Pfad_18" data-name="Pfad 18" d="M201.6,93.5a2.334,2.334,0,0,1-1-2V91a.349.349,0,0,1,.1-.2h.7c.1,0,.1.1.1.2v.4a1.513,1.513,0,0,0,.7,1.4,3.677,3.677,0,0,0,2,.5,2.969,2.969,0,0,0,1.8-.5,1.612,1.612,0,0,0,.6-1.3,1.4,1.4,0,0,0-.3-.9,3.514,3.514,0,0,0-.9-.7c-.4-.2-.9-.5-1.6-.8-.8-.3-1.3-.6-1.8-.8a1.789,1.789,0,0,1-1-.9,2.527,2.527,0,0,1,.5-3.3,3.612,3.612,0,0,1,2.4-.7,4.033,4.033,0,0,1,2.6.8,2.658,2.658,0,0,1,1,2.1v.3a.349.349,0,0,1-.1.2h-.8c-.1,0-.1-.1-.1-.2v-.3a1.513,1.513,0,0,0-.7-1.4,2.883,2.883,0,0,0-1.9-.6,3.408,3.408,0,0,0-1.6.4,1.486,1.486,0,0,0-.6,1.3,1.222,1.222,0,0,0,.3.9,2.761,2.761,0,0,0,.8.6c.4.2.9.4,1.6.7s1.3.6,1.8.8a10.628,10.628,0,0,1,1.1.9,2.116,2.116,0,0,1,.4,1.4,2.518,2.518,0,0,1-.9,2,4.033,4.033,0,0,1-2.6.8A3.5,3.5,0,0,1,201.6,93.5Z"/>
    </g>
    <g id="Gruppe_4" data-name="Gruppe 4">
      <path id="Pfad_19" data-name="Pfad 19" d="M72.8,72.5H24.5V62.8H63.1V53.1H24.5v-29H72.8v9.7H34.1v9.7H72.8Z"/>
      <path id="Pfad_20" data-name="Pfad 20" d="M130.7,72.5H82.4V24.1h48.3ZM92.1,62.8h29v-29h-29Z"/>
      <path id="Pfad_21" data-name="Pfad 21" d="M188.7,24.1V72.4H179V33.8h-9.7V72.5h-9.7V33.8H150V72.5h-9.7V24.1Z" fill="#568ab6"/>
      <path id="Pfad_22" data-name="Pfad 22" d="M198.4,24.1h9.7V72.4h-9.7Z" fill="#568ab6"/>
    </g>
  </g>
</svg>
