<svg width="33" height="33" viewBox="0 0 33 33" fill="none" xmlns="http://www.w3.org/2000/svg">
	<g clip-path="url(#clip0_211_154)">
		<path d="M17.5703 2.29684C9.28631 2.29684 2.57031 9.01284 2.57031 17.2968C2.57031 25.5808 9.28631 32.2968 17.5703 32.2968C25.8543 32.2968 32.5703 25.5808 32.5703 17.2968C32.5703 9.01284 25.8543 2.29684 17.5703 2.29684ZM17.5703 30.2968C10.4023 30.2968 4.57031 24.4648 4.57031 17.2968C4.57031 10.1288 10.4023 4.29684 17.5703 4.29684C24.7383 4.29684 30.5703 10.1288 30.5703 17.2968C30.5703 24.4648 24.7383 30.2968 17.5703 30.2968ZM23.1063 10.3468L17.6083 15.8448L12.6783 10.3468C12.2883 9.95684 11.6543 9.95684 11.2643 10.3468C10.8743 10.7368 10.8743 11.3708 11.2643 11.7608L16.1963 17.2588L10.6223 22.8328C10.2323 23.2228 10.2323 23.8568 10.6223 24.2468C11.0123 24.6368 11.6463 24.6368 12.0363 24.2468L17.5343 18.7488L22.4663 24.2468C22.8563 24.6368 23.4903 24.6368 23.8803 24.2468C24.2703 23.8568 24.2703 23.2228 23.8803 22.8328L18.9463 17.3348L24.5203 11.7608C24.9103 11.3708 24.9103 10.7368 24.5203 10.3468C24.1303 9.95684 23.4963 9.95684 23.1063 10.3468Z" fill="black">
		</path>
	</g>
        <defs>
        	<clipPath id="clip0_211_154">
                	<rect width="32" height="32" fill="white" transform="translate(0.570312 0.296844)"></rect>
                </clipPath>
        </defs>
</svg>