<svg xmlns="http://www.w3.org/2000/svg" width="60" height="63" viewBox="0 0 60 63" fill="none">

<path fill-rule="evenodd" clip-rule="evenodd" d="M3.85912 45.1505C2.49069 46.1252 2 47.0133 2 47.7368C2 48.3103 2.30237 48.9838 3.12966 49.7388C3.95621 50.4932 5.2182 51.2421 6.89477 51.9383C9.74743 53.1229 13.6464 54.0922 18.2258 54.7143L14.1082 49.644C13.76 49.2153 13.8253 48.5855 14.254 48.2374C14.6828 47.8892 15.3126 47.9545 15.6607 48.3832L21.3344 55.3696C21.6826 55.7983 21.6173 56.4281 21.1885 56.7763L14.2022 62.4499C13.7735 62.7981 13.1437 62.7328 12.7955 62.3041C12.4473 61.8754 12.5126 61.2456 12.9414 60.8974L18.0921 56.7144C13.341 56.0777 9.21422 55.067 6.12777 53.7854C4.33741 53.0419 2.84376 52.1856 1.78141 51.216C0.719798 50.2471 0 49.0778 0 47.7368C0 46.0476 1.13227 44.6373 2.69881 43.5215C4.29062 42.3877 6.52922 41.4077 9.20544 40.6014C14.5705 38.9851 21.9223 38 30 38C38.0777 38 45.4295 38.9851 50.7946 40.6014C53.4708 41.4077 55.7094 42.3877 57.3012 43.5215C58.8677 44.6373 60 46.0476 60 47.7368C60 49.0778 59.2802 50.2471 58.2186 51.216C57.1562 52.1856 55.6626 53.0419 53.8722 53.7854C50.2844 55.2752 45.2909 56.3989 39.545 56.9947L39.3387 55.0053C44.9736 54.4211 49.7592 53.3278 53.1052 51.9383C54.7818 51.2421 56.0438 50.4932 56.8703 49.7388C57.6976 48.9838 58 48.3103 58 47.7368C58 47.0133 57.5093 46.1252 56.1409 45.1505C54.7977 44.1938 52.7894 43.2912 50.2176 42.5164C45.0868 40.9707 37.9385 40 30 40C22.0615 40 14.9132 40.9707 9.78236 42.5164C7.21062 43.2912 5.20227 44.1938 3.85912 45.1505Z" fill="black"/><path d="M16 2C16 0.89543 16.8954 0 18 0H44C45.1046 0 46 0.895431 46 2V44C46 45.1046 45.1046 46 44 46H18C16.8954 46 16 45.1046 16 44V2Z" fill="white"/><path fill-rule="evenodd" clip-rule="evenodd" d="M37 6H25V5H37V6Z" fill="#999999"/><path fill-rule="evenodd" clip-rule="evenodd" d="M37 10H25V9H37V10Z" fill="#999999"/><path d="M24 32.7455L23 46H24H39L38 32.7455C37.8896 31.1588 37 31.0181 35.5 30.2541C34.993 29.9959 33 28.7814 34 27.8364C35.6233 26.3023 36 24.9337 36 23.8723C36 21.9087 34.5413 19 31.5 19C29 19 26.0001 20.751 26 23.8723C25.9999 26.9936 27.1691 26.6434 28 27.8364L28.0145 27.8573C29.0003 29.2726 29.0209 29.3022 26 30.2909C24.5 30.7818 24 31.7636 24 32.7455Z" fill="#999999"/>

</svg>