<svg width="33" height="32" viewBox="0 0 33 32" fill="none" xmlns="http://www.w3.org/2000/svg">

<path d="M16.5 32C7.6634 32 0.5 24.8366 0.5 16C0.5 7.1634 7.6634 0 16.5 0C25.3366 0 32.5 7.1634 32.5 16C32.5 24.8366 25.3366 32 16.5 32ZM24.4235 15.3081C24.4235 14.6288 23.8721 14.0774 23.1928 14.0774H18.2697V9.1543C18.2697 8.47491 17.7196 7.92353 17.0389 7.92353H15.8081C15.1274 7.92353 14.5774 8.47491 14.5774 9.1543V14.0774H9.6543C8.9736 14.0774 8.42353 14.6288 8.42353 15.3081V16.5389C8.42353 17.2196 8.9736 17.7697 9.6543 17.7697H14.5774V22.6928C14.5774 23.3735 15.1274 23.9235 15.8081 23.9235H17.0389C17.7196 23.9235 18.2697 23.3735 18.2697 22.6928V17.7697H23.1928C23.8721 17.7697 24.4235 17.2196 24.4235 16.5389V15.3081Z" fill="white"/>

</svg>