<svg xmlns="http://www.w3.org/2000/svg" width="183.88" height="70.09" viewBox="0 0 183.88 70.09">
  <g id="SOMI-Software" transform="translate(-24.13 -24.15)">
    <g id="Gruppe_9" data-name="Gruppe 9">
      <path id="Pfad_44" data-name="Pfad 44" d="M25.11,93.47a2.44,2.44,0,0,1-.98-2.04v-.46a.133.133,0,0,1,.15-.15h.73a.133.133,0,0,1,.15.15v.41a1.652,1.652,0,0,0,.72,1.4,3.334,3.334,0,0,0,1.99.53,2.685,2.685,0,0,0,1.75-.49,1.586,1.586,0,0,0,.6-1.3,1.441,1.441,0,0,0-.28-.9,2.814,2.814,0,0,0-.85-.7,14.513,14.513,0,0,0-1.63-.77,16.8,16.8,0,0,1-1.75-.79,2.933,2.933,0,0,1-1-.87,2.259,2.259,0,0,1-.38-1.34,2.358,2.358,0,0,1,.88-1.96,3.8,3.8,0,0,1,2.41-.7,4.031,4.031,0,0,1,2.62.78,2.534,2.534,0,0,1,.96,2.07v.33a.133.133,0,0,1-.15.15H30.3a.133.133,0,0,1-.15-.15V86.4a1.757,1.757,0,0,0-.68-1.42,2.944,2.944,0,0,0-1.9-.55,2.7,2.7,0,0,0-1.63.43,1.489,1.489,0,0,0-.57,1.26,1.355,1.355,0,0,0,.28.89,2.4,2.4,0,0,0,.79.61c.34.17.88.4,1.6.68a14.128,14.128,0,0,1,1.76.84,3.7,3.7,0,0,1,1.08.95,2.292,2.292,0,0,1,.41,1.37,2.449,2.449,0,0,1-.93,2.01,4,4,0,0,1-2.58.75A4.193,4.193,0,0,1,25.11,93.47Z"/>
      <path id="Pfad_45" data-name="Pfad 45" d="M50.73,93.8a3.061,3.061,0,0,1-1.25-1.22,3.686,3.686,0,0,1-.44-1.82V86.98a3.686,3.686,0,0,1,.44-1.82,3.061,3.061,0,0,1,1.25-1.22,3.881,3.881,0,0,1,1.87-.43,4.04,4.04,0,0,1,1.88.43,3.149,3.149,0,0,1,1.26,1.22,3.582,3.582,0,0,1,.44,1.82v3.78a3.686,3.686,0,0,1-.44,1.82,3.027,3.027,0,0,1-1.26,1.22,3.953,3.953,0,0,1-1.88.44A4.032,4.032,0,0,1,50.73,93.8Zm3.71-1.17a2.474,2.474,0,0,0,.69-1.83V86.96a2.513,2.513,0,0,0-.69-1.84,2.48,2.48,0,0,0-1.83-.7,2.411,2.411,0,0,0-1.81.7,2.5,2.5,0,0,0-.69,1.84V90.8a2.474,2.474,0,0,0,.69,1.83,2.442,2.442,0,0,0,1.81.69A2.474,2.474,0,0,0,54.44,92.63Z"/>
      <path id="Pfad_46" data-name="Pfad 46" d="M81.18,84.55h-5.5a.053.053,0,0,0-.06.06v3.7a.053.053,0,0,0,.06.06h3.85a.133.133,0,0,1,.15.15v.63a.133.133,0,0,1-.15.15H75.68a.053.053,0,0,0-.06.06v4.6a.133.133,0,0,1-.15.15H74.7a.133.133,0,0,1-.15-.15V83.76a.133.133,0,0,1,.15-.15h6.48a.133.133,0,0,1,.15.15v.63C81.33,84.5,81.28,84.55,81.18,84.55Z"/>
      <path id="Pfad_47" data-name="Pfad 47" d="M105.4,83.77v.65a.133.133,0,0,1-.15.15h-2.94a.053.053,0,0,0-.06.06v9.34a.133.133,0,0,1-.15.15h-.76a.133.133,0,0,1-.15-.15V84.63a.053.053,0,0,0-.06-.06H98.3a.133.133,0,0,1-.15-.15v-.65a.133.133,0,0,1,.15-.15h6.94C105.35,83.62,105.4,83.67,105.4,83.77Z"/>
      <path id="Pfad_48" data-name="Pfad 48" d="M125.19,93.99l-2.88-10.21-.02-.04q0-.12.15-.12h.79a.156.156,0,0,1,.17.12l2.28,8.22c.01.02.02.03.04.03s.03-.01.04-.03l2.11-8.2a.163.163,0,0,1,.17-.14h.81a.147.147,0,0,1,.16.14l2.2,8.2c.01.02.02.03.04.03s.03-.01.04-.03l2.28-8.22a.156.156,0,0,1,.17-.12h.76a.16.16,0,0,1,.11.04.155.155,0,0,1,.02.12L131.8,93.99a.156.156,0,0,1-.17.12h-.79a.155.155,0,0,1-.17-.13l-2.19-8.4c-.01-.02-.02-.03-.04-.03s-.03.01-.04.03l-2.14,8.4c-.01.09-.06.13-.17.13h-.75A.156.156,0,0,1,125.19,93.99Z"/>
      <path id="Pfad_49" data-name="Pfad 49" d="M156.97,93.99l-.6-1.89a.063.063,0,0,0-.06-.05h-4.48a.063.063,0,0,0-.06.05l-.6,1.89a.175.175,0,0,1-.18.12h-.81c-.11,0-.15-.05-.12-.17l3.31-10.21a.175.175,0,0,1,.18-.12h1.02a.175.175,0,0,1,.18.12l3.33,10.21.01.06c0,.07-.04.1-.13.1h-.81A.157.157,0,0,1,156.97,93.99Zm-4.9-2.82a.055.055,0,0,0,.05.02h3.87a.076.076,0,0,0,.05-.02c.02-.02.02-.03.01-.05L154.1,85c-.01-.02-.02-.03-.04-.03s-.04.01-.04.03l-1.95,6.12C152.05,91.13,152.06,91.15,152.07,91.17Z"/>
      <path id="Pfad_50" data-name="Pfad 50" d="M181.82,94.01l-2.2-4.65a.055.055,0,0,0-.06-.04H177a.053.053,0,0,0-.06.06v4.59a.133.133,0,0,1-.15.15h-.76a.133.133,0,0,1-.15-.15V83.77a.133.133,0,0,1,.15-.15h3.88a2.811,2.811,0,0,1,2.08.8,2.843,2.843,0,0,1,.79,2.09,2.811,2.811,0,0,1-.57,1.78,2.551,2.551,0,0,1-1.54.94c-.04.02-.05.05-.03.08l2.25,4.62a.188.188,0,0,1,.02.08c0,.07-.04.1-.12.1H182A.173.173,0,0,1,181.82,94.01Zm-4.88-9.4V88.4a.053.053,0,0,0,.06.06h2.79a1.853,1.853,0,0,0,1.95-1.95,1.946,1.946,0,0,0-.54-1.42,1.914,1.914,0,0,0-1.41-.55H177A.066.066,0,0,0,176.94,84.61Z"/>
      <path id="Pfad_51" data-name="Pfad 51" d="M207.55,84.55h-5.52a.053.053,0,0,0-.06.06v3.7a.053.053,0,0,0,.06.06h3.87a.133.133,0,0,1,.15.15v.63a.133.133,0,0,1-.15.15h-3.87a.053.053,0,0,0-.06.06v3.76a.053.053,0,0,0,.06.06h5.52a.133.133,0,0,1,.15.15v.63a.133.133,0,0,1-.15.15h-6.49a.133.133,0,0,1-.15-.15V83.76a.133.133,0,0,1,.15-.15h6.49a.133.133,0,0,1,.15.15v.63C207.7,84.5,207.65,84.55,207.55,84.55Z"/>
    </g>
    <g id="Gruppe_10" data-name="Gruppe 10">
      <path id="Pfad_52" data-name="Pfad 52" d="M72.76,72.46H24.45V62.8H63.1V53.14H24.45V24.15H72.76v9.66H34.11v9.66H72.76Z"/>
      <path id="Pfad_53" data-name="Pfad 53" d="M130.73,72.46H82.42V24.15h48.31ZM92.08,62.8h28.98V33.82H92.08Z"/>
      <path id="Pfad_54" data-name="Pfad 54" d="M188.69,24.15V72.46h-9.66V33.82h-9.66V72.47h-9.66V33.82h-9.66V72.47h-9.66V24.15Z" fill="#f1974c"/>
      <path id="Pfad_55" data-name="Pfad 55" d="M198.35,24.15h9.66V72.46h-9.66Z" fill="#f1974c"/>
    </g>
  </g>
</svg>
