<svg xmlns="http://www.w3.org/2000/svg" width="184.13" height="70.091" viewBox="0 0 184.13 70.091">
  <g id="SOMI-Academy" transform="translate(-23.88 -24.15)">
    <g id="Gruppe_1" data-name="Gruppe 1">
      <path id="Pfad_1" data-name="Pfad 1" d="M30.81,93.99l-.6-1.89a.063.063,0,0,0-.06-.05H25.67a.063.063,0,0,0-.06.05L25,93.99a.175.175,0,0,1-.18.12h-.81c-.11,0-.15-.05-.12-.17L27.2,83.73a.175.175,0,0,1,.18-.12H28.4a.175.175,0,0,1,.18.12l3.33,10.21.01.06c0,.07-.04.1-.13.1h-.81A.147.147,0,0,1,30.81,93.99Zm-4.9-2.82a.055.055,0,0,0,.05.02h3.87a.076.076,0,0,0,.05-.02c.02-.02.02-.03.01-.05L27.94,85c-.01-.02-.02-.03-.04-.03s-.04.01-.04.03l-1.95,6.12C25.89,91.13,25.89,91.15,25.91,91.17Z"/>
      <path id="Pfad_2" data-name="Pfad 2" d="M55.12,93.84a3.041,3.041,0,0,1-1.24-1.17,3.445,3.445,0,0,1-.44-1.75V86.8a3.359,3.359,0,0,1,.44-1.72,2.958,2.958,0,0,1,1.24-1.16,4.382,4.382,0,0,1,3.68-.01,3.037,3.037,0,0,1,1.24,1.14,3.157,3.157,0,0,1,.44,1.69.214.214,0,0,1-.04.12.128.128,0,0,1-.1.04l-.76.04c-.1,0-.15-.04-.15-.13v-.04a2.222,2.222,0,0,0-.68-1.7,2.5,2.5,0,0,0-1.78-.64,2.461,2.461,0,0,0-1.78.64,2.237,2.237,0,0,0-.67,1.69v4.2a2.244,2.244,0,0,0,.67,1.69,2.493,2.493,0,0,0,1.78.65,2.461,2.461,0,0,0,1.78-.64,2.222,2.222,0,0,0,.68-1.7v-.03c0-.09.05-.13.15-.13l.76.04c.1,0,.15.04.15.13a3.359,3.359,0,0,1-.44,1.72,3,3,0,0,1-1.24,1.15,3.989,3.989,0,0,1-1.84.4A3.909,3.909,0,0,1,55.12,93.84Z"/>
      <path id="Pfad_3" data-name="Pfad 3" d="M88.99,93.99l-.6-1.89a.063.063,0,0,0-.06-.05H83.85a.063.063,0,0,0-.06.05l-.6,1.89a.175.175,0,0,1-.18.12H82.2c-.11,0-.15-.05-.12-.17l3.31-10.21a.175.175,0,0,1,.18-.12h1.02a.175.175,0,0,1,.18.12L90.1,93.94l.01.06c0,.07-.04.1-.13.1h-.81A.157.157,0,0,1,88.99,93.99ZM84.1,91.17a.055.055,0,0,0,.05.02h3.87a.076.076,0,0,0,.05-.02c.02-.02.02-.03.01-.05L86.13,85c-.01-.02-.02-.03-.04-.03s-.04.01-.04.03L84.1,91.12C84.08,91.13,84.08,91.15,84.1,91.17Z"/>
      <path id="Pfad_4" data-name="Pfad 4" d="M112.14,93.96V83.76a.133.133,0,0,1,.15-.15h3.54a3.411,3.411,0,0,1,2.36.78,2.709,2.709,0,0,1,.88,2.11v4.71a2.662,2.662,0,0,1-.88,2.11,3.411,3.411,0,0,1-2.36.78h-3.54C112.19,94.11,112.14,94.06,112.14,93.96Zm1.13-.78h2.61a2.1,2.1,0,0,0,1.55-.57,2.074,2.074,0,0,0,.58-1.53V86.66a2.076,2.076,0,0,0-.57-1.54,2.108,2.108,0,0,0-1.56-.57h-2.61a.053.053,0,0,0-.06.06v8.52C113.21,93.16,113.23,93.18,113.27,93.18Z"/>
      <path id="Pfad_5" data-name="Pfad 5" d="M148.14,84.55h-5.52a.053.053,0,0,0-.06.06v3.7a.053.053,0,0,0,.06.06h3.87a.133.133,0,0,1,.15.15v.63a.133.133,0,0,1-.15.15h-3.87a.053.053,0,0,0-.06.06v3.76a.053.053,0,0,0,.06.06h5.52a.133.133,0,0,1,.15.15v.63a.133.133,0,0,1-.15.15h-6.49a.133.133,0,0,1-.15-.15V83.76a.133.133,0,0,1,.15-.15h6.49a.133.133,0,0,1,.15.15v.63C148.29,84.5,148.24,84.55,148.14,84.55Z"/>
      <path id="Pfad_6" data-name="Pfad 6" d="M177.65,83.62h.78a.133.133,0,0,1,.15.15v10.2a.133.133,0,0,1-.15.15h-.76a.133.133,0,0,1-.15-.15V85.63a.06.06,0,0,0-.03-.06c-.02-.01-.04,0-.04.03L175,89.34a.212.212,0,0,1-.18.1h-.39a.227.227,0,0,1-.18-.09l-2.44-3.72c-.01-.03-.02-.04-.04-.03a.06.06,0,0,0-.03.06v8.29a.133.133,0,0,1-.15.15h-.76a.133.133,0,0,1-.15-.15V83.75a.133.133,0,0,1,.15-.15h.78a.2.2,0,0,1,.18.09l2.82,4.27c.01.01.02.01.04.01s.03,0,.04-.01l2.79-4.26A.214.214,0,0,1,177.65,83.62Z"/>
      <path id="Pfad_7" data-name="Pfad 7" d="M203.78,93.95V89.51a.1.1,0,0,0-.02-.07l-3.12-5.64a.23.23,0,0,1-.03-.09c0-.06.04-.09.14-.09h.81a.187.187,0,0,1,.18.1l2.52,4.57c.01.01.02.01.05.01s.03,0,.04-.01l2.53-4.57a.19.19,0,0,1,.18-.1h.81a.136.136,0,0,1,.12.05.111.111,0,0,1-.02.13l-3.12,5.64a.117.117,0,0,0-.02.07v4.44a.133.133,0,0,1-.15.15h-.76C203.83,94.1,203.78,94.05,203.78,93.95Z"/>
    </g>
    <g id="Gruppe_2" data-name="Gruppe 2">
      <path id="Pfad_8" data-name="Pfad 8" d="M72.76,72.46H24.45V62.8H63.1V53.14H24.45V24.15H72.76v9.66H34.11v9.66H72.76Z"/>
      <path id="Pfad_9" data-name="Pfad 9" d="M130.73,72.46H82.42V24.15h48.31ZM92.08,62.8h28.98V33.82H92.08Z"/>
      <path id="Pfad_10" data-name="Pfad 10" d="M188.69,24.15V72.46h-9.66V33.82h-9.66V72.47h-9.66V33.82h-9.66V72.47h-9.66V24.15Z" fill="#a22e5c"/>
      <path id="Pfad_11" data-name="Pfad 11" d="M198.35,24.15h9.66V72.46h-9.66Z" fill="#a22e5c"/>
    </g>
  </g>
</svg>
